<?xml version="1.0" ?><!DOCTYPE svg  PUBLIC '-//W3C//DTD SVG 1.1//EN'  'http://www.w3.org/Graphics/SVG/1.1/DTD/svg11.dtd'><!-- Uploaded to: SVG Repo, www.svgrepo.com, Generator: SVG Repo Mixer Tools -->
<svg fill="#000000" width="800px" height="800px" viewBox="0 0 512 512" enable-background="new 0 0 512 512" id="gate_x5F_airport" version="1.1" xml:space="preserve" xmlns="http://www.w3.org/2000/svg" xmlns:xlink="http://www.w3.org/1999/xlink"><path d="M82.884,381.83h346.231c15.352,0,27.797-12.445,27.797-27.797V157.967c0-15.352-12.445-27.796-27.797-27.796H82.884  c-15.352,0-27.796,12.445-27.796,27.796v196.066C55.088,369.385,67.533,381.83,82.884,381.83z M361.311,222.588l40.652,4.458  c1.809-0.083,3.588,0.463,5.038,1.546l4.981,3.722c1.344,1.003,0.891,3.12-0.744,3.487l-33.717,1.585  c-2.588,0.122-5.119-0.775-7.053-2.498l-10.479-9.333C358.751,224.452,359.66,222.407,361.311,222.588z M299.039,208.268  c2.719-0.829,5.457-1.175,8.07-1.212c8.22-0.117,16.158,3.003,22.424,8.325L393.831,270l13.874-2.647  c3.623-0.691,7.342,0.571,9.795,3.325l1.336,1.501c1.096,1.229,0.84,3.145-0.539,4.044l-12.136,7.922  c-7.428,4.85-17.075,4.621-24.266-0.574l-31.505-22.762l-0.373,46.459c-0.018,2.011-2.384,3.077-3.9,1.757l-5.625-4.896  c-1.638-1.426-2.729-3.374-3.09-5.515l-9.055-53.731l-31.6-22.831c-0.799-0.577-1.495-1.301-2.011-2.14  c-0.04-0.065-0.08-0.13-0.118-0.195C291.998,215.321,294.145,209.76,299.039,208.268z M246.999,163.087h18.002v185.826h-18.002  V163.087z M111.172,250.532l43.561-38.975c3.248-2.906,8.405-0.601,8.405,3.758v16.843h35.018c4.97,0,8.999,4.029,8.999,8.999  v29.687c0,4.97-4.029,8.998-8.999,8.998h-35.018v16.844c0,4.358-5.157,6.664-8.405,3.758l-43.561-38.975  C107.912,258.552,107.912,253.449,111.172,250.532z"/></svg>